<svg width="56" height="56" viewBox="0 0 56 56" fill="none" xmlns="http://www.w3.org/2000/svg">
<g clip-path="url(#clip0_2430_4300)">
<path d="M28.4258 0.742676C29.4685 0.759348 30.4647 0.787722 30.6885 0.811035V0.810059C32.778 1.04615 34.632 1.43772 36.3682 2.00049H36.3691C46.2543 5.18891 53.5427 13.7961 55.0244 24.0347L55.0254 24.0356C55.2433 25.5293 55.2695 25.9478 55.2695 28.0083C55.2695 30.0688 55.2433 30.4874 55.0254 31.981L55.0244 31.9819C54.2783 37.1296 52.0566 41.9592 48.6064 45.9214L48.6055 45.9224C47.083 47.6752 45.1818 49.3623 43.3604 50.5991L39.3174 44.4761V44.4751L28.2832 27.7593C26.4675 25.0057 24.8005 22.4859 23.5771 20.6431C22.9656 19.7217 22.4639 18.969 22.1104 18.4409C21.9339 18.1774 21.7936 17.9688 21.6943 17.8228C21.645 17.7501 21.6042 17.691 21.5742 17.6479C21.5594 17.6267 21.5453 17.606 21.5332 17.5894C21.5274 17.5813 21.5205 17.5712 21.5127 17.561C21.5101 17.5576 21.4914 17.5342 21.4668 17.5073H21.4678C21.3777 17.4087 21.264 17.2965 21.1152 17.2007C20.9606 17.1012 20.7971 17.0379 20.6201 16.9976C20.3062 16.9261 19.8961 16.9185 19.3594 16.9185C18.9 16.9185 18.6015 16.9204 18.3916 16.9409C18.1256 16.9669 17.9669 17.026 17.7949 17.1099L17.7812 17.1167L17.7686 17.1235C17.6208 17.2035 17.4315 17.3402 17.2783 17.4927L17.1494 17.6372L16.9795 17.8501L16.8281 18.0415L16.8271 18.2847L16.8115 29.2544L16.7998 40.2183V40.3735L16.8662 40.5151L16.9805 40.7612L16.9863 40.7739L16.9932 40.7866C17.1302 41.0515 17.3341 41.283 17.6064 41.4556L17.6084 41.4565L17.8594 41.6147L18.0303 41.7231H19.1787C19.9394 41.7231 20.2892 41.7226 20.6455 41.5444V41.5454L20.6572 41.5386C20.8103 41.4584 20.9642 41.3605 21.1074 41.2134C21.2467 41.0702 21.3468 40.9113 21.4326 40.7495V40.7485C21.524 40.5759 21.5522 40.4077 21.5693 40.1978C21.5861 39.9922 21.5967 39.6668 21.6045 39.1255C21.6203 38.0325 21.6266 35.9772 21.6348 32.0405C21.6402 29.7909 21.6477 27.7451 21.6572 26.2632C21.6577 26.1956 21.6578 26.1291 21.6582 26.064C21.7909 26.2586 21.9339 26.4666 22.084 26.687C23.1059 28.1885 24.5103 30.2601 26.0518 32.5396L31.6572 40.8345L31.665 40.8472L31.6748 40.8599L36.1475 46.9019C37.3781 48.5645 38.5067 50.0837 39.333 51.1919C39.7093 51.6965 40.0231 52.1168 40.2559 52.4263C37.448 53.835 34.5967 54.698 31.2852 55.1294L30.6016 55.2114C30.2227 55.2528 29.1366 55.2769 27.999 55.2769C27.1456 55.2769 26.3212 55.263 25.8027 55.2388L25.3965 55.2114C23.5281 55.0049 21.865 54.6803 20.2959 54.2212L19.6289 54.0161C9.74374 50.8277 2.45534 42.2205 0.973633 31.9819V31.981L0.84375 31.02C0.744405 30.1755 0.729492 29.5538 0.729492 28.0083C0.729492 25.9478 0.755693 25.5293 0.973633 24.0356V24.0347C1.55309 20.0134 3.02684 16.2017 5.31836 12.7964L5.78809 12.1206C10.3848 5.69476 17.6429 1.51485 25.3818 0.816895C25.7293 0.789218 26.1208 0.750699 26.2305 0.740723H26.2344C26.4111 0.723691 27.374 0.725862 28.4258 0.742676ZM36.4863 16.1528C36.0724 16.1528 35.7925 16.1551 35.5898 16.1772C35.328 16.206 35.1682 16.2708 35.002 16.356L34.9951 16.3599L34.9873 16.3638C34.5518 16.5998 34.2431 16.9977 34.1064 17.4761L34.1025 17.4917C34.0814 17.5729 34.076 17.6575 34.0752 17.6694C34.0725 17.7072 34.0703 17.7523 34.0684 17.8013C34.0643 17.9005 34.061 18.0363 34.0576 18.2046C34.0509 18.5423 34.0448 19.0267 34.04 19.6489C34.0304 20.8942 34.0254 22.7012 34.0254 25.0122V32.3677L34.1396 32.5415L35.8779 35.1987L37.6113 37.856L38.8936 39.8228L38.8975 37.4751L38.9141 27.6431C38.9195 24.2172 38.919 21.7425 38.9121 20.106C38.9087 19.2882 38.9036 18.677 38.8965 18.2603C38.893 18.0525 38.8896 17.8884 38.8848 17.77C38.8824 17.7116 38.8794 17.6581 38.876 17.6138C38.875 17.6014 38.8681 17.5054 38.8408 17.4116H38.8418C38.8411 17.4093 38.8396 17.4071 38.8389 17.4048V17.4019H38.8379C38.7038 16.9536 38.3657 16.5624 37.9521 16.3481H37.9531C37.9491 16.3459 37.9445 16.3444 37.9404 16.3423C37.9371 16.3406 37.934 16.3381 37.9307 16.3364H37.9297C37.7525 16.2434 37.5826 16.196 37.3535 16.1743C37.1544 16.1555 36.8797 16.1528 36.4863 16.1528Z" stroke="white" stroke-width="1.4"/>
<path d="M42.8906 51.691C42.6992 51.8113 42.639 51.8933 42.8086 51.8004C42.9289 51.7293 43.1257 51.5816 43.0929 51.5762C43.0765 51.5762 42.9835 51.6309 42.8906 51.691ZM42.5133 51.9371C42.4149 52.0136 42.4149 52.0191 42.5352 51.9589C42.6008 51.9261 42.6555 51.8879 42.6555 51.8769C42.6555 51.8332 42.6281 51.8441 42.5133 51.9371ZM42.2399 52.1011C42.1414 52.1777 42.1414 52.1831 42.2617 52.123C42.3274 52.0902 42.382 52.0519 42.382 52.041C42.382 51.9972 42.3547 52.0082 42.2399 52.1011ZM41.9665 52.2652C41.868 52.3417 41.868 52.3472 41.9883 52.287C42.054 52.2542 42.1086 52.216 42.1086 52.205C42.1086 52.1613 42.0813 52.1722 41.9665 52.2652ZM41.5509 52.4839C41.3431 52.5933 41.354 52.637 41.5618 52.5331C41.6548 52.4839 41.7259 52.4347 41.7259 52.4237C41.7259 52.3855 41.7204 52.3909 41.5509 52.4839Z" fill="white"/>
</g>
<defs>
<clipPath id="clip0_2430_4300">
<rect width="56" height="56" fill="white"/>
</clipPath>
</defs>
</svg>
