<svg width="32" height="32" viewBox="0 0 32 32" fill="none" xmlns="http://www.w3.org/2000/svg">
<mask id="mask0_2525_5489" style="mask-type:alpha" maskUnits="userSpaceOnUse" x="0" y="0" width="32" height="32">
<rect width="32" height="32" fill="#D9D9D9"/>
</mask>
<g mask="url(#mask0_2525_5489)">
<path d="M7.99935 28.0001C6.99935 28.0001 6.01046 27.7557 5.03268 27.2668C4.0549 26.7779 3.26602 26.1334 2.66602 25.3334C3.24379 25.3334 3.83268 25.1057 4.43268 24.6501C5.03268 24.1946 5.33268 23.5334 5.33268 22.6668C5.33268 21.5557 5.72157 20.6112 6.49935 19.8334C7.27713 19.0557 8.22157 18.6668 9.33268 18.6668C10.4438 18.6668 11.3882 19.0557 12.166 19.8334C12.9438 20.6112 13.3327 21.5557 13.3327 22.6668C13.3327 24.1334 12.8105 25.389 11.766 26.4334C10.7216 27.4779 9.46602 28.0001 7.99935 28.0001ZM7.99935 25.3334C8.73268 25.3334 9.36046 25.0723 9.88268 24.5501C10.4049 24.0279 10.666 23.4001 10.666 22.6668C10.666 22.289 10.5382 21.9723 10.2827 21.7168C10.0271 21.4612 9.71046 21.3334 9.33268 21.3334C8.9549 21.3334 8.63824 21.4612 8.38268 21.7168C8.12713 21.9723 7.99935 22.289 7.99935 22.6668C7.99935 23.1779 7.93824 23.6446 7.81602 24.0668C7.69379 24.489 7.53268 24.889 7.33268 25.2668C7.44379 25.3112 7.5549 25.3334 7.66602 25.3334H7.99935ZM15.666 20.0001L11.9993 16.3334L23.9327 4.40011C24.1771 4.15567 24.4827 4.02789 24.8493 4.01678C25.216 4.00567 25.5327 4.13345 25.7994 4.40011L27.5993 6.20011C27.866 6.46678 27.9993 6.77789 27.9993 7.13345C27.9993 7.489 27.866 7.80011 27.5993 8.06678L15.666 20.0001Z" fill="#0474C4"/>
</g>
</svg>
