<svg width="32" height="32" viewBox="0 0 32 32" fill="none" xmlns="http://www.w3.org/2000/svg">
<mask id="mask0_2525_5475" style="mask-type:alpha" maskUnits="userSpaceOnUse" x="0" y="0" width="32" height="32">
<rect width="32" height="32" fill="#D9D9D9"/>
</mask>
<g mask="url(#mask0_2525_5475)">
<path d="M6.66667 28.0002C5.93333 28.0002 5.30556 27.7391 4.78333 27.2168C4.26111 26.6946 4 26.0668 4 25.3335V6.66683C4 5.9335 4.26111 5.30572 4.78333 4.7835C5.30556 4.26127 5.93333 4.00016 6.66667 4.00016H12.2333C12.4778 3.22238 12.9556 2.5835 13.6667 2.0835C14.3778 1.5835 15.1556 1.3335 16 1.3335C16.8889 1.3335 17.6833 1.5835 18.3833 2.0835C19.0833 2.5835 19.5556 3.22238 19.8 4.00016H25.3333C26.0667 4.00016 26.6944 4.26127 27.2167 4.7835C27.7389 5.30572 28 5.9335 28 6.66683V12.0002C28 12.3779 27.8722 12.6946 27.6167 12.9502C27.3611 13.2057 27.0444 13.3335 26.6667 13.3335C26.2889 13.3335 25.9722 13.2057 25.7167 12.9502C25.4611 12.6946 25.3333 12.3779 25.3333 12.0002V6.66683H22.6667V9.3335C22.6667 9.71127 22.5389 10.0279 22.2833 10.2835C22.0278 10.5391 21.7111 10.6668 21.3333 10.6668H10.6667C10.2889 10.6668 9.97222 10.5391 9.71667 10.2835C9.46111 10.0279 9.33333 9.71127 9.33333 9.3335V6.66683H6.66667V25.3335H12C12.3778 25.3335 12.6944 25.4613 12.95 25.7168C13.2056 25.9724 13.3333 26.2891 13.3333 26.6668C13.3333 27.0446 13.2056 27.3613 12.95 27.6168C12.6944 27.8724 12.3778 28.0002 12 28.0002H6.66667ZM16.95 6.2835C17.2056 6.02794 17.3333 5.71127 17.3333 5.3335C17.3333 4.95572 17.2056 4.63905 16.95 4.3835C16.6944 4.12794 16.3778 4.00016 16 4.00016C15.6222 4.00016 15.3056 4.12794 15.05 4.3835C14.7944 4.63905 14.6667 4.95572 14.6667 5.3335C14.6667 5.71127 14.7944 6.02794 15.05 6.2835C15.3056 6.53905 15.6222 6.66683 16 6.66683C16.3778 6.66683 16.6944 6.53905 16.95 6.2835ZM20.6667 26.6668C19 26.6668 17.5833 26.0835 16.4167 24.9168C15.25 23.7502 14.6667 22.3335 14.6667 20.6668C14.6667 19.0002 15.25 17.5835 16.4167 16.4168C17.5833 15.2502 19 14.6668 20.6667 14.6668C22.3333 14.6668 23.75 15.2502 24.9167 16.4168C26.0833 17.5835 26.6667 19.0002 26.6667 20.6668C26.6667 21.2446 26.5833 21.8002 26.4167 22.3335C26.25 22.8668 26.0222 23.3779 25.7333 23.8668L28.4 26.5335C28.6444 26.7779 28.7667 27.0891 28.7667 27.4668C28.7667 27.8446 28.6444 28.1557 28.4 28.4002C28.1556 28.6446 27.8444 28.7668 27.4667 28.7668C27.0889 28.7668 26.7778 28.6446 26.5333 28.4002L23.8667 25.7335C23.3778 26.0224 22.8667 26.2502 22.3333 26.4168C21.8 26.5835 21.2444 26.6668 20.6667 26.6668ZM23.0333 23.0335C23.6778 22.3891 24 21.6002 24 20.6668C24 19.7335 23.6778 18.9446 23.0333 18.3002C22.3889 17.6557 21.6 17.3335 20.6667 17.3335C19.7333 17.3335 18.9444 17.6557 18.3 18.3002C17.6556 18.9446 17.3333 19.7335 17.3333 20.6668C17.3333 21.6002 17.6556 22.3891 18.3 23.0335C18.9444 23.6779 19.7333 24.0002 20.6667 24.0002C21.6 24.0002 22.3889 23.6779 23.0333 23.0335Z" fill="#0474C4"/>
</g>
</svg>
